
    <svg xmlns="http://www.w3.org/2000/svg" width="900" height="900" viewBox="0 0 900 900">
      <path d="M355 702L355 702Q328 702 303 702Q278 701 264 701L264 701Q259 701 259 696L259 696Q259 691 263 679Q267 667 278 642L278 642Q305 583 331 519Q357 454 377 393L377 393Q378 390 379 387Q380 384 380 383L380 383Q380 377 376 375Q372 374 365 374L365 374Q358 374 350 374Q342 375 336 375L336 375Q335 375 335 373L335 373Q335 369 339 369L339 369Q348 370 365 370Q381 370 393 370L393 370Q406 370 420 370Q433 370 445 369L445 369Q446 369 445 371Q444 373 443 373L443 373Q438 373 433 373Q428 373 423 374L423 374Q407 376 403 383L403 383Q399 388 390 406Q381 425 371 447Q361 470 353 490Q344 509 340 518L340 518Q326 552 312 587Q298 621 287 655L287 655Q285 662 284 667Q283 671 283 676L283 676Q283 684 289 688Q295 693 311 694L311 694Q318 694 326 695Q334 695 342 695L342 695Q351 695 358 695Q364 694 367 694L367 694Q386 693 404 689Q421 686 430 680L430 680Q433 678 440 666Q447 654 450 638L450 638Q450 637 452 637Q455 638 455 640L455 640Q451 650 447 663Q443 677 438 688Q433 698 430 699L430 699Q420 701 399 701Q378 702 355 702Z" fill="#FFFFFF"/>
    </svg>
  